<?xml version="1.0"?>
<svg xmlns="http://www.w3.org/2000/svg" xmlns:xlink="http://www.w3.org/1999/xlink" xmlns:svgjs="http://svgjs.com/svgjs" version="1.1" width="512" height="512" x="0" y="0" viewBox="0 0 512 512" style="enable-background:new 0 0 512 512" xml:space="preserve" class=""><g>
<path xmlns="http://www.w3.org/2000/svg" style="" d="M49.696,53.58C91.148,1.166,167.512-7.749,219.927,33.707c7.557,5.978,8.839,16.949,2.862,24.506  L94.087,220.958c-5.977,7.557-16.948,8.839-24.505,2.861C17.167,182.362,8.247,105.994,49.696,53.58z" fill="#ffd422" data-original="#ffd422" class=""/>
<path xmlns="http://www.w3.org/2000/svg" style="" d="M65.427,66.815c35.089-44.37,99.503-51.89,143.874-16.796c4.177,3.304,8.026,6.868,11.546,10.65  L95.256,219.48c-4.491-2.553-8.846-5.479-13.024-8.783C37.862,175.603,30.338,111.186,65.427,66.815z" fill="#ffeb99" data-original="#ffeb99" class=""/>
<path xmlns="http://www.w3.org/2000/svg" style="" d="M115.736,32.424l42.335,107.624L43.556,123.697c1.288-20.051,8.465-39.931,21.872-56.882  S96.522,38.298,115.736,32.424z" fill="#ffde55" data-original="#ffde55" class=""/>
<path xmlns="http://www.w3.org/2000/svg" style="" d="M483.559,120.744c-3.54-3.914-8.572-6.148-13.85-6.148H149.461c-5.278,0-10.31,2.233-13.85,6.148  c-3.539,3.914-5.259,9.145-4.729,14.395l35.48,352.453c0.96,9.541,8.991,16.803,18.579,16.803h249.288  c9.59,0,17.619-7.262,18.579-16.803l35.48-352.453C488.817,129.889,487.099,124.658,483.559,120.744z" fill="#d1e7f8" data-original="#d1e7f8" class=""/>
<path xmlns="http://www.w3.org/2000/svg" style="" d="M242.842,487.592l-35.48-352.453c-0.529-5.251,1.19-10.481,4.729-14.395  c3.54-3.914,8.572-6.148,13.85-6.148h-76.48c-5.278,0-10.31,2.233-13.85,6.148c-3.539,3.914-5.259,9.145-4.729,14.395l35.48,352.453  c0.96,9.541,8.991,16.803,18.579,16.803h76.48C251.832,504.396,243.802,497.133,242.842,487.592z" fill="#b9d8f4" data-original="#b9d8f4" class=""/>
<path xmlns="http://www.w3.org/2000/svg" style="" d="M193.473,308.788c35.834,40.499,97.935,44.291,138.434,8.452c5.84-5.168,6.385-14.09,1.219-19.929  L221.863,171.563c-5.166-5.84-14.088-6.384-19.928-1.217C161.436,206.185,157.641,268.289,193.473,308.788z" fill="#ffd422" data-original="#ffd422" class=""/>
<path xmlns="http://www.w3.org/2000/svg" style="" d="M205.591,297.391c30.334,34.284,82.717,37.482,117.001,7.144c3.227-2.856,6.179-5.908,8.854-9.121  L222.874,172.706c-3.515,2.264-6.903,4.822-10.13,7.678C178.46,210.722,175.258,263.108,205.591,297.391z" fill="#ffeb99" data-original="#ffeb99" class=""/>
<path xmlns="http://www.w3.org/2000/svg" style="" d="M247.778,322.932l29.4-88.851l-91.799,18.327c1.935,16.144,8.624,31.885,20.214,44.984  C217.182,310.489,231.991,319.045,247.778,322.932z" fill="#ffde55" data-original="#ffde55" class=""/>
<path xmlns="http://www.w3.org/2000/svg" style="" d="M435.704,295.065c-2.679-2.962-6.486-4.652-10.48-4.652H193.947c-3.994,0-7.801,1.69-10.481,4.652  c-2.679,2.962-3.979,6.92-3.58,10.894l15.492,153.9c0.727,7.22,6.804,12.716,14.06,12.716h200.293  c7.256,0,13.334-5.496,14.06-12.716l15.492-153.9C439.684,301.986,438.383,298.028,435.704,295.065z" fill="#ff9423" data-original="#ff5023" class=""/>
<path xmlns="http://www.w3.org/2000/svg" style="" d="M266.648,459.86l-15.492-153.9c-0.4-3.974,0.9-7.932,3.58-10.895  c2.68-2.962,6.486-4.652,10.481-4.652h-71.27c-3.994,0-7.801,1.69-10.481,4.652c-2.679,2.962-3.979,6.92-3.58,10.895l15.492,153.9  c0.727,7.22,6.804,12.716,14.06,12.716h71.27C273.452,472.576,267.375,467.081,266.648,459.86z" fill="#c97305" data-original="#ff3501" class=""/>
<path xmlns="http://www.w3.org/2000/svg" style="" d="M286.315,356.913l-52.879-52.879c-7.491-7.491-7.491-19.75,0-27.242l52.879-52.879  c7.491-7.491,19.75-7.491,27.242,0l52.879,52.879c7.491,7.491,7.491,19.75,0,27.242l-52.879,52.879  C306.065,364.404,293.807,364.404,286.315,356.913z" fill="#ddfffb" data-original="#ddfffb" class=""/>
<path xmlns="http://www.w3.org/2000/svg" style="" d="M373.593,292.671c-2.257-1.449-4.893-2.257-7.626-2.257H226.094c0,3.874,1.47,7.749,4.409,10.688  l58.745,58.745c5.878,5.878,15.497,5.878,21.376,0l58.745-58.745C371.734,298.735,373.132,295.761,373.593,292.671z" fill="#ffbe78" data-original="#ff9478" class=""/>
<path xmlns="http://www.w3.org/2000/svg" style="" d="M345.572,356.913l-52.879-52.879c-7.491-7.491-7.491-19.75,0-27.242l52.879-52.879  c7.491-7.491,19.75-7.491,27.242,0l52.879,52.879c7.491,7.491,7.491,19.75,0,27.242l-52.879,52.879  C365.322,364.404,353.064,364.404,345.572,356.913z" fill="#ffffff" data-original="#ffffff" class=""/>
<path xmlns="http://www.w3.org/2000/svg" style="" d="M432.85,292.671c-2.257-1.449-4.893-2.257-7.626-2.257H285.351c0,3.874,1.47,7.749,4.409,10.688  l58.745,58.745c5.878,5.878,15.497,5.878,21.376,0l58.745-58.745C430.992,298.735,432.389,295.761,432.85,292.671z" fill="#ffd2ab" data-original="#ffbcab" class=""/>
<g xmlns="http://www.w3.org/2000/svg">
	<path style="" d="M402.075,392.062c-4.164-0.545-7.225-4.149-6.804-8.327l0.483-4.792   c0.421-4.178,4.142-7.216,8.327-6.804c4.178,0.421,7.225,4.149,6.804,8.327l-0.483,4.792   C410.008,389.178,408.271,392.873,402.075,392.062z" fill="#c97305" data-original="#ff3501" class=""/>
	<path style="" d="M397.042,449.765c-0.254,0-0.511-0.013-0.771-0.039c-4.179-0.421-7.225-4.149-6.804-8.327   l3.635-36.107c0.421-4.178,4.147-7.221,8.327-6.804c4.179,0.421,7.225,4.149,6.804,8.327l-3.635,36.107   C404.203,446.842,400.898,449.765,397.042,449.765z" fill="#c97305" data-original="#ff3501" class=""/>
</g>
<path xmlns="http://www.w3.org/2000/svg" d="M489.198,115.643c-4.973-5.498-12.077-8.652-19.489-8.652H153.239l-27.287-69.367c2.896-0.613,5.835-1.106,8.812-1.454  c25.156-2.936,49.952,4.099,69.818,19.812c2.108,1.667,4.142,3.436,6.104,5.274l-23.126,29.244  c-2.605,3.294-2.047,8.076,1.247,10.681c3.294,2.605,8.075,2.047,10.681-1.247l29.264-37.005c8.568-10.834,6.724-26.618-4.11-35.187  C197.701,6.434,164.03-3.103,129.818,0.889C95.613,4.883,65.04,21.92,43.733,48.864C-0.318,104.565,9.161,185.725,64.865,229.783  c4.468,3.533,9.895,4.979,15.49,5.406c7.095,0.541,15.545-4.266,19.696-9.514l28.655-36.234l30.09,298.913  C160.153,501.835,171.392,512,184.942,512H434.23c13.549,0,24.789-10.166,26.146-23.647l35.48-352.453  C496.596,128.526,494.171,121.143,489.198,115.643z M137.948,109.662c-2.986,1.456-5.705,3.471-7.977,5.983  c-2.844,3.146-4.851,6.908-5.913,10.933l-72.161-9.455c2.248-16.142,8.674-31.909,19.493-45.59  c10.628-13.439,24.371-23.518,39.934-29.552L137.948,109.662z M74.299,217.855C25.172,179,16.811,107.422,55.661,58.296  c18.787-23.757,45.75-38.78,75.92-42.302c30.175-3.522,59.872,4.887,83.628,23.676c2.673,2.115,3.952,5.348,3.7,8.515  c-1.596-1.419-3.22-2.807-4.892-4.129c-23.052-18.234-51.825-26.398-81.016-22.99c-29.192,3.408-55.308,17.98-73.539,41.033  c-14.219,17.98-21.906,39.066-23.404,60.373c-0.013,0.08-0.032,0.157-0.044,0.237c-0.057,0.431-0.067,0.856-0.052,1.276  c-1.957,34.595,12.37,69.595,41.551,92.675c1.399,1.107,2.837,2.169,4.29,3.208c-0.087,0.012-0.171,0.032-0.26,0.043  C78.935,220.214,76.36,219.486,74.299,217.855z M126.225,168.06l-32.739,41.398c-2.241-1.484-4.429-3.057-6.537-4.724  c-23.046-18.229-35.345-45.084-35.943-72.39l72.913,9.553l2.6,25.828C126.421,167.835,126.318,167.942,126.225,168.06z   M480.723,134.378l-35.48,352.453c-0.571,5.679-5.306,9.962-11.014,9.962H184.941c-5.708,0-10.442-4.282-11.014-9.962  l-35.479-352.454c-0.313-3.106,0.709-6.217,2.803-8.532c2.096-2.317,5.088-3.646,8.211-3.646H469.71c3.123,0,6.115,1.329,8.21,3.644  C480.013,128.161,481.036,131.272,480.723,134.378z" fill="#000000" data-original="#000000" style="" class=""/>
<path xmlns="http://www.w3.org/2000/svg" d="M438.824,288.134c-0.515-6.101-3.096-12.059-7.755-16.718l-52.879-52.879c-5.06-5.06-11.807-7.846-18.998-7.846  s-13.938,2.786-18.997,7.846l-10.631,10.631l-10.631-10.631c-5.06-5.06-11.807-7.846-18.998-7.846  c-7.191,0-13.938,2.786-18.997,7.846l-3.905,3.905l-49.475-55.917c-3.844-4.345-9.152-6.934-14.943-7.287  c-5.78-0.347-11.372,1.569-15.718,5.415c-18.715,16.562-30.977,39.321-34.527,64.087c-3.278,22.871,1.01,46.196,12.08,66.219  c-1.774,3.614-2.539,7.688-2.128,11.761l15.492,153.9c1.122,11.15,10.419,19.559,21.626,19.559h200.293  c11.206,0,20.504-8.408,21.626-19.559l15.492-153.899C447.464,300.621,445.753,291.828,438.824,288.134z M226.519,188.3  l35.204,39.788l-61.683,13.613c0.208-17.669,7.258-35.199,20.915-48.215C220.955,193.486,223.499,191.046,226.519,188.3z   M254.141,245.334l-26.082,26.082c-3.287,3.287-5.541,7.219-6.765,11.393h-7.948c-5.874-7.898-9.78-16.741-11.766-25.9  C201.724,256.887,254.141,245.334,254.141,245.334z M206.974,176.041c5.049-4.436,9.678,1.108,9.678,1.108  c-1.324,1.036-2.632,2.106-3.908,3.235c-29.717,26.297-36.054,69.147-17.465,102.426c0,0-5.433-0.697-9.259,1.505  C167.726,247.93,175.85,203.382,206.974,176.041z M416.225,459.099c-0.338,3.349-3.129,5.873-6.495,5.873H209.438  c-3.365,0-6.157-2.525-6.495-5.873l-15.492-153.901c-0.185-1.832,0.418-3.665,1.653-5.031c1.236-1.366,3-2.149,4.841-2.149h27.348  c1.225,4.174,3.478,8.108,6.765,11.393l10.205,10.205c1.484,1.484,6.075,4.317,10.753,0c3.086-2.848,2.969-7.784,0-10.753  l-10.205-10.205c-4.546-4.546-4.546-11.943,0-16.489l52.88-52.879c2.187-2.187,5.115-3.391,8.243-3.391s6.058,1.204,8.244,3.391  l10.631,10.631l-4.81,4.81c-2.969,2.969-2.969,7.784,0,10.753c2.969,2.97,7.784,2.97,10.753,0l26.194-26.194  c2.187-2.187,5.115-3.391,8.243-3.391s6.058,1.204,8.244,3.391l52.879,52.879c2.187,2.187,3.391,5.115,3.391,8.244  c0,3.13-1.204,6.058-3.391,8.244l-52.88,52.879c-2.187,2.187-5.115,3.391-8.243,3.391s-6.058-1.204-8.244-3.391l-52.879-52.879  c-2.187-2.187-3.391-5.115-3.391-8.243s1.204-6.058,3.391-8.244l11.646-11.646c2.969-2.97,2.969-7.784,0-10.753  c-2.969-2.969-7.784-2.969-10.753,0l-11.646,11.646c-5.06,5.06-7.846,11.807-7.846,18.998s2.786,13.938,7.846,18.997l31.495,31.495  l-10.632,10.631c-2.187,2.187-5.115,3.392-8.243,3.392c-3.129,0-6.058-1.204-8.244-3.392l-27.466-27.466  c-2.97-2.969-7.783-2.969-10.754,0c-2.969,2.969-2.968,7.784,0,10.753l27.466,27.466c5.06,5.06,11.807,7.846,18.998,7.846  c7.191,0,13.938-2.787,18.997-7.846l10.631-10.631l10.631,10.631c5.06,5.06,11.807,7.846,18.998,7.846s13.938-2.786,18.997-7.846  l52.879-52.879c0.086-0.086,0.166-0.176,0.251-0.264L416.225,459.099z" fill="#000000" data-original="#000000" style="" class=""/>
<g xmlns="http://www.w3.org/2000/svg">
</g>
<g xmlns="http://www.w3.org/2000/svg">
</g>
<g xmlns="http://www.w3.org/2000/svg">
</g>
<g xmlns="http://www.w3.org/2000/svg">
</g>
<g xmlns="http://www.w3.org/2000/svg">
</g>
<g xmlns="http://www.w3.org/2000/svg">
</g>
<g xmlns="http://www.w3.org/2000/svg">
</g>
<g xmlns="http://www.w3.org/2000/svg">
</g>
<g xmlns="http://www.w3.org/2000/svg">
</g>
<g xmlns="http://www.w3.org/2000/svg">
</g>
<g xmlns="http://www.w3.org/2000/svg">
</g>
<g xmlns="http://www.w3.org/2000/svg">
</g>
<g xmlns="http://www.w3.org/2000/svg">
</g>
<g xmlns="http://www.w3.org/2000/svg">
</g>
<g xmlns="http://www.w3.org/2000/svg">
</g>
</g></svg>
